<?xml version="1.0" encoding="iso-8859-1"?>
<!-- Generator: Adobe Illustrator 19.0.0, SVG Export Plug-In . SVG Version: 6.00 Build 0)  -->
<svg version="1.1" id="Layer_1" xmlns="http://www.w3.org/2000/svg" xmlns:xlink="http://www.w3.org/1999/xlink" x="0px" y="0px"
	 viewBox="0 0 512 512" style="enable-background:new 0 0 512 512;" xml:space="preserve">
<g>
	<path style="fill:#FFFFFF;" d="M215.88,275.544c0,16.904,7.56,27.584,22.24,27.584c16.464,0,33.824-20.912,37.824-46.72
		l6.232-42.272c-3.56-0.888-8.016-1.784-13.8-1.784C239.016,212.352,215.88,241.272,215.88,275.544z"/>
	<path style="fill:#FFFFFF;" d="M256,20C125.872,20,20,125.872,20,256s105.872,236,236,236s236-105.872,236-236S386.128,20,256,20z
		 M317.768,338.72c-20.912,0-36.04-10.68-38.264-34.256h-0.888c-13.8,22.688-33.816,34.256-57.4,34.256
		c-28.92,0-49.832-21.36-49.832-57.84c0-54.28,40.048-103.672,104.12-103.672c19.576,0,41.832,4.896,52.952,11.128l-13.352,82.312
		c-4.448,26.248-1.336,38.264,11.128,38.712c19.136,0.448,43.16-24.024,43.16-75.192c0-57.84-37.376-102.784-106.336-102.784
		c-68.08,0-127.704,53.392-127.704,138.376c0,74.304,47.608,116.576,113.904,116.576c22.696,0,46.72-4.888,64.512-14.232
		l8.008,25.808c-26.696,12.016-49.832,16.016-81.424,16.016c-73.856,0-138.824-52.944-138.824-140.16
		c0-90.776,65.848-169.52,166.408-169.52c78.312,0,134.376,53.832,134.376,128.584C402.312,297.784,365.824,338.72,317.768,338.72z"
		/>
</g>
<path style="fill:#8AD5DD;" d="M256,0C114.616,0,0,114.616,0,256s114.616,256,256,256s256-114.616,256-256S397.384,0,256,0z
	 M256,492C125.872,492,20,386.128,20,256S125.872,20,256,20s236,105.872,236,236S386.128,492,256,492z"/>
<path style="fill:#DB2B42;" d="M267.936,104.232c-100.552,0-166.408,78.752-166.408,169.52c0,87.208,64.96,140.16,138.824,140.16
	c31.592,0,54.728-4,81.424-16.016l-8.008-25.808c-17.8,9.344-41.824,14.232-64.512,14.232c-66.296,0-113.904-42.272-113.904-116.576
	c0-84.984,59.624-138.376,127.704-138.376c68.96,0,106.336,44.936,106.336,102.784c0,51.168-24.024,75.64-43.16,75.192
	c-12.464-0.448-15.568-12.464-11.128-38.712l13.352-82.312c-11.128-6.224-33.376-11.128-52.952-11.128
	c-64.072,0-104.12,49.392-104.12,103.672c0,36.488,20.912,57.84,49.832,57.84c23.584,0,43.6-11.568,57.4-34.256h0.888
	c2.224,23.576,17.352,34.256,38.264,34.256c48.056,0,84.536-40.936,84.536-105.896C402.312,158.072,346.248,104.232,267.936,104.232
	z M275.944,256.408c-4,25.808-21.36,46.72-37.824,46.72c-14.68,0-22.24-10.68-22.24-27.584c0-34.264,23.136-63.184,52.504-63.184
	c5.784,0,10.232,0.888,13.8,1.784L275.944,256.408z"/>
<g>
</g>
<g>
</g>
<g>
</g>
<g>
</g>
<g>
</g>
<g>
</g>
<g>
</g>
<g>
</g>
<g>
</g>
<g>
</g>
<g>
</g>
<g>
</g>
<g>
</g>
<g>
</g>
<g>
</g>
</svg>
