<svg height="481pt" viewBox="0 0 481.27976 481" width="481pt" xmlns="http://www.w3.org/2000/svg"><path d="m393.28125 411.339844-24 41.601562-33.28125-19.203125v38.402344h-48v-38.402344l-33.28125 19.203125-24-41.601562 33.28125-19.199219-33.28125-19.199219 24-41.601562 33.28125 19.199218v-38.398437h42.160156l5.839844 3.359375 8 4.640625-8 4.640625-25.28125 14.558594 24 41.601562 33.28125-19.203125v38.402344h5.839844zm0 0" fill="#ffc477"/><g fill="#d8d7da"><path d="m176 424.140625c0 8.835937-7.164062 16-16 16s-16-7.164063-16-16 7.164062-16 16-16 16 7.164063 16 16zm0 0"/><path d="m336 392.140625c0 13.253906-10.746094 24-24 24s-24-10.746094-24-24 10.746094-24 24-24 24 10.746094 24 24zm0 0"/><path d="m440 320.140625 33.28125 19.199219-24 41.601562-33.28125-19.203125v38.402344h-48v-38.402344l-33.28125 19.203125-24-41.601562 25.28125-14.558594 8-4.640625-8-4.640625-5.839844-3.359375-19.441406-11.199219 24-41.601562 33.28125 19.199218v-38.398437h48v38.398437l33.28125-19.199218 24 41.601562zm0 0"/></g><path d="m416 320.140625c0 13.253906-10.746094 24-24 24s-24-10.746094-24-24 10.746094-24 24-24 24 10.746094 24 24zm0 0" fill="#ffc477"/><path d="m160 472.140625c-19.882812.015625-37.710938-12.242187-44.8125-30.8125-7.105469-18.570313-2.007812-39.597656 12.8125-52.851563v-155.058593c-26.796875-11.640625-45.09375-37-47.6875-66.101563-2.597656-29.105468 10.917969-57.300781 35.230469-73.503906l12.457031-8.351562v82.679687h64v-82.679687l12.457031 8.351562c24.308594 16.199219 37.824219 44.390625 35.226563 73.492188-2.597656 29.097656-20.886719 54.449218-47.683594 66.089843v155.066407c14.832031 13.253906 19.9375 34.289062 12.832031 52.863281-7.101562 18.578125-24.941406 30.839843-44.832031 30.816406zm0-64c-8.835938 0-16 7.164063-16 16s7.164062 16 16 16 16-7.164063 16-16-7.164062-16-16-16zm0 0" fill="#9bfbff"/><path d="m205.695312 262.347656c-1.007812.441406-1.695312.679688-2.398437.992188l-11.296875 5.160156v-34.945312l4.367188-2.222657c27.550781-14.046875 44.527343-42.726562 43.59375-73.636719-.933594-30.910156-19.613282-58.507812-47.960938-70.867187l.214844 1.75-.214844.664063v78.898437h-64v-78.839844l-.257812-.746093.160156-2.023438c-29.070313 12.960938-47.828125 41.777344-47.902344 73.609375-.082031 30.070313 16.800781 57.621094 43.632812 71.199219l4.367188 2.222656v34.945312l-11.320312-5.167968c-.679688-.3125-1.367188-.550782-2.046876-.800782l-28.167968 27.730469-5.65625 5.671875-56.609375-56.601562 33.601562-33.496094-.59375-1.328125c-.597656-1.511719-1.183593-3-1.710937-4.535156l-39.496094.160156h-8v-80h47.519531c.496094-1.367187 1.082031-2.855469 1.679688-4.367187l.464843-1.1875-27.792968-28-5.671875-5.644532 56.601562-56.601562 33.496094 33.601562 1.296875-.578125c1.527344-.597656 3.015625-1.191406 4.566406-1.726562l-.160156-39.496094v-8h80v47.519531c1.382812.503906 2.871094 1.097656 4.398438 1.695313l1.160156.457031 28-27.800781 5.65625-5.671875 56.585937 56.601562-33.601562 33.496094.59375 1.328125c.597656 1.511719 1.183593 3 1.710937 4.535156l39.496094-.160156h8v80h-47.519531c-.496094 1.367187-1.082031 2.855469-1.679688 4.367187l-.464843 1.183594 27.792968 28 5.671875 5.65625-56.601562 56.59375zm0 0" fill="#d8d7da"/><path d="m200 277.652344c1.601562-1.433594 3.425781-3.03125 5.128906-4.511719l28.414063 28.414063c3.125 3.125 8.1875 3.125 11.3125 0l56.558593-56.558594c3.125-3.125 3.125-8.1875 0-11.3125l-25.542968-25.542969h36.128906c4.417969 0 8-3.582031 8-8v-80c0-4.417969-3.582031-8-8-8h-36.128906l25.542968-25.542969c3.125-3.125 3.125-8.191406 0-11.3125l-56.558593-56.5625c-3.125-3.121094-8.1875-3.121094-11.3125 0l-25.542969 25.546875v-36.128906c0-4.417969-3.582031-8-8-8h-80c-4.417969 0-8 3.582031-8 8v36.128906l-25.542969-25.546875c-3.175781-3-8.140625-3-11.3125 0l-56.558593 56.5625c-3.125 3.121094-3.125 8.1875 0 11.3125l25.542968 25.542969h-36.128906c-4.417969 0-8 3.582031-8 8v80c0 4.417969 3.582031 8 8 8h36.128906l-25.542968 25.542969c-3.125 3.125-3.125 8.1875 0 11.3125l56.558593 56.558594c3.125 3.125 8.1875 3.125 11.3125 0l28.414063-28.414063c1.703125 1.480469 3.511718 3.078125 5.128906 4.511719v107.375c-21.539062 21.984375-21.300781 57.234375.535156 78.925781 21.839844 21.6875 57.089844 21.6875 78.929688 0 21.835937-21.691406 22.074218-56.941406.535156-78.925781zm-82.511719-22.625c-3.003906-1.285156-6.488281-.613282-8.800781 1.695312l-27.886719 27.863282-45.25-45.246094 27.863281-27.863282c2.292969-2.289062 2.980469-5.734374 1.738282-8.730468-.800782-1.820313-1.449219-3.582032-2.136719-5.40625-1.167969-3.128906-4.15625-5.199219-7.496094-5.199219h-39.519531v-64h39.519531c3.339844 0 6.328125-2.074219 7.496094-5.199219.6875-1.824218 1.367187-3.585937 2.136719-5.410156 1.242187-2.992188.554687-6.4375-1.738282-8.726562l-27.863281-27.863282 45.25-45.25 27.863281 27.863282c2.292969 2.292968 5.742188 2.976562 8.734376 1.730468 1.824218-.800781 3.578124-1.449218 5.410156-2.136718 3.121094-1.171876 5.191406-4.15625 5.191406-7.488282v-39.519531h64v39.519531c0 3.332032 2.070312 6.316406 5.191406 7.488282 1.832032.6875 3.585938 1.375 5.410156 2.136718 2.992188 1.246094 6.441407.5625 8.734376-1.730468l27.863281-27.863282 45.25 45.25-27.863281 27.863282c-2.292969 2.289062-2.980469 5.734374-1.738282 8.726562.800782 1.824219 1.449219 3.585938 2.136719 5.410156 1.167969 3.125 4.15625 5.199219 7.496094 5.199219h39.519531v64h-39.519531c-3.339844 0-6.328125 2.070313-7.496094 5.199219-.6875 1.824218-1.367187 3.585937-2.136719 5.40625-1.242187 2.996094-.554687 6.441406 1.738282 8.730468l27.863281 27.863282-45.25 45.246094-27.863281-27.863282c-2.3125-2.308594-5.796876-2.980468-8.800782-1.695312-.894531.410156-1.738281.925781-2.511718 1.535156v-18.078125c30.3125-15.449219 48.992187-46.996094 47.964843-81-1.027343-34.007813-21.578125-64.367187-52.765625-77.960937-2.472656-1.078126-5.324218-.839844-7.582031.640624-2.257813 1.480469-3.617187 3.996094-3.617187 6.695313v73.28125h-48.023438v-73.28125c0-2.699219-1.359375-5.214844-3.617188-6.695313-2.257812-1.480468-5.109374-1.71875-7.582031-.640624-31.1875 13.59375-51.738281 43.953124-52.765625 77.960937-1.027344 34.003906 17.652344 65.550781 47.964844 81v18.078125c-.773438-.609375-1.617188-1.125-2.511719-1.535156zm42.511719 209.113281c-16.570312.03125-31.433594-10.171875-37.363281-25.644531-5.925781-15.472656-1.683594-33 10.667969-44.042969 1.714843-1.519531 2.695312-3.703125 2.695312-5.992187v-155.042969c0-3.175781-1.886719-6.054688-4.800781-7.324219-24.121094-10.515625-40.578125-33.363281-42.910157-59.570312-2.335937-26.210938 9.828126-51.605469 31.710938-66.214844v67.832031c0 4.417969 3.582031 8 8 8h64c4.417969 0 8-3.582031 8-8v-67.832031c21.882812 14.609375 34.046875 40.003906 31.710938 66.214844-2.332032 26.207031-18.789063 49.054687-42.910157 59.570312-2.914062 1.269531-4.800781 4.148438-4.800781 7.324219v155.042969c0 2.289062.980469 4.472656 2.695312 5.992187 12.351563 11.042969 16.59375 28.570313 10.667969 44.042969-5.929687 15.472656-20.792969 25.675781-37.363281 25.644531zm0 0"/><path d="m160 400.140625c-13.253906 0-24 10.746094-24 24s10.746094 24 24 24 24-10.746094 24-24-10.746094-24-24-24zm0 32c-4.417969 0-8-3.582031-8-8s3.582031-8 8-8 8 3.582031 8 8-3.582031 8-8 8zm0 0"/><path d="m477.28125 332.429688-21.28125-12.289063 21.28125-12.289063c3.824219-2.207031 5.136719-7.101562 2.925781-10.925781l-24-41.601562c-2.207031-3.828125-7.101562-5.136719-10.925781-2.929688l-21.28125 12.320313v-24.574219c0-4.417969-3.582031-8-8-8h-48c-4.417969 0-8 3.582031-8 8v24.574219l-21.28125-12.285156c-3.824219-2.210938-8.71875-.898438-10.925781 2.925781l-24 41.601562c-1.242188 2.21875-1.335938 4.898438-.25 7.199219h-15.542969c-4.417969 0-8 3.582031-8 8v24.542969l-21.28125-12.269531c-3.824219-2.210938-8.71875-.898438-10.925781 2.925781l-24 41.601562c-2.203125 3.824219-.894531 8.710938 2.925781 10.917969l21.28125 12.265625-21.28125 12.269531c-3.820312 2.210938-5.128906 7.097656-2.925781 10.921875l24 41.601563c2.207031 3.824218 7.101562 5.136718 10.925781 2.925781l21.28125-12.261719v24.542969c0 4.417969 3.582031 8 8 8h48c4.417969 0 8-3.582031 8-8v-24.542969l21.28125 12.269532c3.824219 2.210937 8.71875.898437 10.925781-2.925782l24-41.601562c1.058594-1.835938 1.347657-4.015625.800781-6.0625-.152343-.394532-.339843-.769532-.558593-1.128906h15.550781c4.417969 0 8-3.582032 8-8v-24.585938l21.28125 12.289062c3.824219 2.210938 8.71875.898438 10.925781-2.925781l24-41.601562c2.1875-3.820313.878907-8.6875-2.925781-10.894531zm-110.929688 109.597656-26.351562-15.199219c-2.472656-1.429687-5.519531-1.429687-7.992188-.003906-2.476562 1.425781-4.003906 4.058593-4.007812 6.914062v30.402344h-32v-30.402344c0-2.855469-1.523438-5.496093-4-6.925781s-5.523438-1.429688-8 0l-26.351562 15.199219-16-27.734375 26.351562-15.203125c2.476562-1.425781 4-4.066407 4-6.925781 0-2.859376-1.523438-5.5-4-6.929688l-26.351562-15.199219 16-27.734375 26.351562 15.199219c2.476562 1.429687 5.53125 1.429687 8.007812-.003906 2.476563-1.433594 3.996094-4.078125 3.992188-6.941407v-30.398437h32l-21.28125 12.289063c-3.824219 2.207031-5.136719 7.101562-2.925781 10.925781l9.808593 16.945312c-.53125 0-1.035156-.160156-1.601562-.160156-17.671875 0-32 14.324219-32 32 0 17.671875 14.328125 32 32 32s32-14.328125 32-32c-.011719-2.316406-.28125-4.625-.800781-6.878906l16.800781-9.699219v24.578125c0 4.417969 3.582031 8 8 8h3.703125l10.648437 6.136719zm-38.351562-49.886719c0 8.835937-7.164062 16-16 16s-16-7.164063-16-16 7.164062-16 16-16 16 7.164063 16 16zm118.351562-22.144531-26.351562-15.214844c-2.480469-1.433594-5.535156-1.429688-8.015625.007812-2.476563 1.4375-3.996094 4.085938-3.984375 6.949219v30.402344h-32v-30.402344c0-2.855469-1.523438-5.496093-4-6.925781s-5.523438-1.429688-8 0l-26.351562 15.199219-16-27.710938 26.351562-15.199219c2.476562-1.429687 4-4.070312 4-6.929687s-1.523438-5.5-4-6.929687l-26.351562-15.199219 16-27.710938 26.351562 15.199219c2.484375 1.433594 5.546875 1.429688 8.027344-.015625 2.480468-1.445313 3.996094-4.105469 3.972656-6.976563v-30.398437h32v30.398437c0 2.859376 1.523438 5.5 4 6.929688s5.523438 1.429688 8 0l26.351562-15.199219 16 27.710938-26.351562 15.199219c-2.476562 1.429687-4 4.070312-4 6.929687 0 2.855469 1.523438 5.496094 4 6.925781l26.351562 15.199219zm0 0"/><path d="m392 288.140625c-17.671875 0-32 14.324219-32 32 0 17.671875 14.328125 32 32 32s32-14.328125 32-32c0-17.675781-14.328125-32-32-32zm0 48c-8.835938 0-16-7.164063-16-16s7.164062-16 16-16 16 7.164063 16 16-7.164062 16-16 16zm0 0"/></svg>