<svg height="464pt" viewBox="-31 0 463 464" width="464pt" xmlns="http://www.w3.org/2000/svg"><path d="m368.5 464h-160c-17.671875 0-32-14.328125-32-32v-400c0-17.671875 14.328125-32 32-32h160c17.671875 0 32 14.328125 32 32v400c0 17.671875-14.328125 32-32 32zm0 0" fill="#5a6470"/><path d="m304.5 416c0 8.835938-7.164062 16-16 16s-16-7.164062-16-16 7.164062-16 16-16 16 7.164062 16 16zm0 0" fill="#aabece"/><path d="m272.5 24h64v16h-64zm0 0" fill="#aabece"/><path d="m240.5 24h16v16h-16zm0 0" fill="#aabece"/><path d="m176.5 64h224v304h-224zm0 0" fill="#f4f4e6"/><path d="m144.5 128v-64h-144v320h144v-200l72-56zm0 0" fill="#ffd782"/><g fill="#e97424"><path d="m24.5 144h96v16h-96zm0 0"/><path d="m24.5 176h96v16h-96zm0 0"/><path d="m24.5 208h96v16h-96zm0 0"/><path d="m56.5 304h64v16h-64zm0 0"/><path d="m88.5 336h32v16h-32zm0 0"/><path d="m24.5 88h16v16h-16zm0 0"/><path d="m56.5 88h32v16h-32zm0 0"/></g><path d="m368.5 160c.003906 2.675781-.160156 5.34375-.480469 8-3.871093 30.460938-28.8125 53.886719-59.457031 55.839844-30.640625 1.953125-58.355469-18.117188-66.0625-47.839844-1.320312-5.230469-1.992188-10.605469-2-16 0-35.347656 28.652344-64 64-64s64 28.652344 64 64zm0 0" fill="#32b1cc"/><path d="m356.101562 122.160156-27.601562 21.839844h-24l-24 8-16 24h-22c-1.320312-5.230469-1.992188-10.605469-2-16 .007812-27.667969 17.796875-52.195312 44.089844-60.804688 26.292968-8.605468 55.144531.65625 71.511718 22.964844zm0 0" fill="#c8d952"/><path d="m368.019531 168c-3.078125 24.4375-19.90625 44.941406-43.273437 52.726562-23.367188 7.78125-49.128906 1.464844-66.246094-16.246093l38-4.480469 8-24 32-8zm0 0" fill="#c8d952"/><path d="m208.5 288h64v48h-64zm0 0" fill="#ffd782"/><path d="m272.5 288h96v48h-96zm0 0" fill="#e97424"/><path d="m200.5 248h72v16h-72zm0 0" fill="#394d5c"/><path d="m288.5 248h16v16h-16zm0 0" fill="#394d5c"/><path d="m320.5 248h56v16h-56zm0 0" fill="#394d5c"/><path d="m200.5 216h40v16h-40zm0 0" fill="#394d5c"/></svg>