<svg height="512pt" viewBox="0 -55 512 512" width="512pt" xmlns="http://www.w3.org/2000/svg"><path d="m503.464844 93.867188v281.597656c-.027344 9.414062-7.652344 17.039062-17.066406 17.070312h-460.796876c-.890624 0-1.777343-.085937-2.648437-.257812-6.4375-.964844-11.75-5.546875-13.652344-11.777344v-.085938c-.515625-1.597656-.777343-3.265624-.765625-4.949218l-.003906-281.597656zm0 0" fill="#e8edfc"/><path d="m477.867188 93.867188v281.597656c-.027344 9.414062-7.652344 17.039062-17.066407 17.070312h-435.199219c-.890624 0-1.777343-.085937-2.648437-.257812-6.4375-.964844-11.75-5.546875-13.652344-11.777344v-.085938c-.515625-1.597656-.777343-3.265624-.765625-4.949218l-.003906-281.597656zm0 0" fill="#fff"/><path d="m59.734375 145.066406h392.53125c9.425781 0 17.066406 7.640625 17.066406 17.066406v51.199219c0 9.425781-7.640625 17.066407-17.066406 17.066407h-392.53125c-9.425781 0-17.066406-7.640626-17.066406-17.066407v-51.199219c0-9.425781 7.640625-17.066406 17.066406-17.066406zm0 0" fill="#cad9fc"/><path d="m59.734375 145.066406h366.933594c9.425781 0 17.066406 7.640625 17.066406 17.066406v51.199219c0 9.425781-7.640625 17.066407-17.066406 17.066407h-366.933594c-9.425781 0-17.066406-7.640626-17.066406-17.066407v-51.199219c0-9.425781 7.640625-17.066406 17.066406-17.066406zm0 0" fill="#e8edfc"/><path d="m443.734375 187.734375c0 9.425781-7.640625 17.066406-17.066406 17.066406s-17.066407-7.640625-17.066407-17.066406 7.640626-17.066406 17.066407-17.066406 17.066406 7.640625 17.066406 17.066406zm0 0" fill="#fff"/><path d="m503.464844 25.601562v68.265626h-494.929688v-68.265626c.027344-9.414062 7.652344-17.039062 17.066406-17.066406h460.796876c9.414062.027344 17.039062 7.652344 17.066406 17.066406zm0 0" fill="#cad9fc"/><path d="m477.867188 25.601562v68.265626h-469.332032v-68.265626c.027344-9.414062 7.652344-17.039062 17.066406-17.066406h435.199219c9.414063.027344 17.039063 7.652344 17.066407 17.066406zm0 0" fill="#e8edfc"/><path d="m68.265625 51.199219c0 9.425781-7.640625 17.066406-17.066406 17.066406s-17.066407-7.640625-17.066407-17.066406 7.640626-17.066407 17.066407-17.066407 17.066406 7.640626 17.066406 17.066407zm0 0" fill="#e8edfc"/><path d="m128 51.199219c0 9.425781-7.640625 17.066406-17.066406 17.066406-9.425782 0-17.066406-7.640625-17.066406-17.066406s7.640624-17.066407 17.066406-17.066407c9.425781 0 17.066406 7.640626 17.066406 17.066407zm0 0" fill="#e8edfc"/><path d="m187.734375 51.199219c0 9.425781-7.640625 17.066406-17.066406 17.066406s-17.066407-7.640625-17.066407-17.066406 7.640626-17.066407 17.066407-17.066407 17.066406 7.640626 17.066406 17.066407zm0 0" fill="#e8edfc"/><path d="m435.199219 341.332031c0 4.714844-3.820313 8.535157-8.53125 8.535157-4.714844 0-8.535157-3.820313-8.535157-8.535157 0-4.710937 3.820313-8.53125 8.535157-8.53125 4.710937 0 8.53125 3.820313 8.53125 8.53125zm0 0" fill="#428dff"/><path d="m0 375.464844v-349.863282h17.066406v349.863282zm0 0" fill="#fff"/><g fill="#428dff"><path d="m8.535156 332.800781c-4.714844 0-8.535156 3.820313-8.535156 8.53125v34.132813h17.066406v-34.132813c0-4.710937-3.820312-8.53125-8.53125-8.53125zm0 0"/><path d="m17.066406 25.601562h-17.066406v247.464844c0 4.714844 3.820312 8.535156 8.535156 8.535156 4.710938 0 8.53125-3.820312 8.53125-8.535156zm0 0"/><path d="m0 307.199219c.03125 2.261719.917969 4.421875 2.476562 6.058593l1.277344 1.023438c.476563.324219.992188.582031 1.535156.769531.484376.246094 1.003907.417969 1.539063.511719.5625.09375 1.132813.152344 1.707031.171875 2.257813-.035156 4.421875-.917969 6.058594-2.476563.769531-.816406 1.378906-1.769531 1.789062-2.816406 1.289063-3.179687.585938-6.824218-1.789062-9.300781-.816406-.769531-1.773438-1.378906-2.816406-1.792969-1.027344-.4375-2.128906-.667968-3.242188-.679687-2.261718.03125-4.425781.914062-6.058594 2.472656-1.558593 1.636719-2.445312 3.800781-2.476562 6.058594zm0 0"/><path d="m486.398438 401.066406h-460.796876c-14.140624 0-25.601562-11.460937-25.601562-25.601562 0-4.710938 3.820312-8.53125 8.535156-8.53125 4.710938 0 8.53125 3.820312 8.53125 8.53125 0 4.714844 3.820313 8.535156 8.535156 8.535156h460.796876c4.714843 0 8.535156-3.820312 8.535156-8.535156v-349.863282c0-4.714843-3.820313-8.535156-8.535156-8.535156h-460.796876c-4.714843 0-8.535156 3.820313-8.535156 8.535156 0 4.710938-3.820312 8.53125-8.53125 8.53125-4.714844 0-8.535156-3.820312-8.535156-8.53125 0-14.140624 11.460938-25.601562 25.601562-25.601562h460.796876c14.140624 0 25.601562 11.460938 25.601562 25.601562v349.863282c0 14.140625-11.460938 25.601562-25.601562 25.601562zm0 0"/><path d="m503.464844 102.398438h-494.929688c-4.714844 0-8.535156-3.820313-8.535156-8.53125 0-4.714844 3.820312-8.535157 8.535156-8.535157h494.929688c4.714844 0 8.535156 3.820313 8.535156 8.535157 0 4.710937-3.820312 8.53125-8.535156 8.53125zm0 0"/><path d="m51.199219 76.800781c-14.136719 0-25.597657-11.460937-25.597657-25.601562 0-14.136719 11.460938-25.597657 25.597657-25.597657 14.140625 0 25.601562 11.460938 25.601562 25.597657 0 14.140625-11.460937 25.601562-25.601562 25.601562zm0-34.132812c-4.710938 0-8.53125 3.820312-8.53125 8.53125 0 4.714843 3.820312 8.535156 8.53125 8.535156 4.714843 0 8.535156-3.820313 8.535156-8.535156 0-4.710938-3.820313-8.53125-8.535156-8.53125zm0 0"/><path d="m110.933594 76.800781c-14.140625 0-25.601563-11.460937-25.601563-25.601562 0-14.136719 11.460938-25.597657 25.601563-25.597657 14.136718 0 25.601562 11.460938 25.601562 25.597657 0 14.140625-11.464844 25.601562-25.601562 25.601562zm0-34.132812c-4.714844 0-8.535156 3.820312-8.535156 8.53125 0 4.714843 3.820312 8.535156 8.535156 8.535156 4.710937 0 8.53125-3.820313 8.53125-8.535156 0-4.710938-3.820313-8.53125-8.53125-8.53125zm0 0"/><path d="m170.667969 76.800781c-14.140625 0-25.601563-11.460937-25.601563-25.601562 0-14.136719 11.460938-25.597657 25.601563-25.597657 14.136719 0 25.597656 11.460938 25.597656 25.597657 0 14.140625-11.460937 25.601562-25.597656 25.601562zm0-34.132812c-4.714844 0-8.535157 3.820312-8.535157 8.53125 0 4.714843 3.820313 8.535156 8.535157 8.535156 4.710937 0 8.53125-3.820313 8.53125-8.535156 0-4.710938-3.820313-8.53125-8.53125-8.53125zm0 0"/><path d="m452.265625 238.933594h-392.53125c-14.140625 0-25.601563-11.460938-25.601563-25.601563v-51.199219c0-14.136718 11.460938-25.597656 25.601563-25.597656h392.53125c14.140625 0 25.601563 11.460938 25.601563 25.597656v51.199219c0 14.140625-11.460938 25.601563-25.601563 25.601563zm-392.53125-85.332032c-4.714844 0-8.535156 3.820313-8.535156 8.53125v51.199219c0 4.714844 3.820312 8.535157 8.535156 8.535157h392.53125c4.714844 0 8.535156-3.820313 8.535156-8.535157v-51.199219c0-4.710937-3.820312-8.53125-8.535156-8.53125zm0 0"/><path d="m426.667969 213.332031c-14.140625 0-25.601563-11.460937-25.601563-25.597656 0-14.140625 11.460938-25.601563 25.601563-25.601563 14.136719 0 25.597656 11.460938 25.597656 25.601563 0 14.136719-11.460937 25.597656-25.597656 25.597656zm0-34.132812c-4.714844 0-8.535157 3.820312-8.535157 8.535156 0 4.710937 3.820313 8.53125 8.535157 8.53125 4.710937 0 8.53125-3.820313 8.53125-8.53125 0-4.714844-3.820313-8.535156-8.53125-8.535156zm0 0"/><path d="m76.800781 238.933594c-4.714843 0-8.535156-3.820313-8.535156-8.535156v-25.597657c0-4.714843 3.820313-8.535156 8.535156-8.535156 4.710938 0 8.53125 3.820313 8.53125 8.535156v25.597657c0 4.714843-3.820312 8.535156-8.53125 8.535156zm0 0"/><path d="m110.933594 238.933594c-4.714844 0-8.535156-3.820313-8.535156-8.535156v-17.066407c0-4.710937 3.820312-8.53125 8.535156-8.53125 4.710937 0 8.53125 3.820313 8.53125 8.53125v17.066407c0 4.714843-3.820313 8.535156-8.53125 8.535156zm0 0"/><path d="m145.066406 238.933594c-4.710937 0-8.53125-3.820313-8.53125-8.535156v-25.597657c0-4.714843 3.820313-8.535156 8.53125-8.535156 4.714844 0 8.535156 3.820313 8.535156 8.535156v25.597657c0 4.714843-3.820312 8.535156-8.535156 8.535156zm0 0"/><path d="m179.199219 238.933594c-4.710938 0-8.53125-3.820313-8.53125-8.535156v-17.066407c0-4.710937 3.820312-8.53125 8.53125-8.53125 4.714843 0 8.535156 3.820313 8.535156 8.53125v17.066407c0 4.714843-3.820313 8.535156-8.535156 8.535156zm0 0"/><path d="m213.332031 238.933594c-4.710937 0-8.53125-3.820313-8.53125-8.535156v-25.597657c0-4.714843 3.820313-8.535156 8.53125-8.535156 4.714844 0 8.535157 3.820313 8.535157 8.535156v25.597657c0 4.714843-3.820313 8.535156-8.535157 8.535156zm0 0"/><path d="m247.464844 238.933594c-4.710938 0-8.53125-3.820313-8.53125-8.535156v-17.066407c0-4.710937 3.820312-8.53125 8.53125-8.53125 4.714844 0 8.535156 3.820313 8.535156 8.53125v17.066407c0 4.714843-3.820312 8.535156-8.535156 8.535156zm0 0"/><path d="m281.601562 238.933594c-4.714843 0-8.535156-3.820313-8.535156-8.535156v-25.597657c0-4.714843 3.820313-8.535156 8.535156-8.535156 4.710938 0 8.53125 3.820313 8.53125 8.535156v25.597657c0 4.714843-3.820312 8.535156-8.53125 8.535156zm0 0"/><path d="m315.734375 238.933594c-4.714844 0-8.535156-3.820313-8.535156-8.535156v-17.066407c0-4.710937 3.820312-8.53125 8.535156-8.53125 4.710937 0 8.53125 3.820313 8.53125 8.53125v17.066407c0 4.714843-3.820313 8.535156-8.53125 8.535156zm0 0"/><path d="m349.867188 238.933594c-4.714844 0-8.535157-3.820313-8.535157-8.535156v-25.597657c0-4.714843 3.820313-8.535156 8.535157-8.535156 4.710937 0 8.53125 3.820313 8.53125 8.535156v25.597657c0 4.714843-3.820313 8.535156-8.53125 8.535156zm0 0"/><path d="m384 238.933594c-4.710938 0-8.535156-3.820313-8.535156-8.535156v-17.066407c0-4.710937 3.824218-8.53125 8.535156-8.53125s8.535156 3.820313 8.535156 8.53125v17.066407c0 4.714843-3.824218 8.535156-8.535156 8.535156zm0 0"/><path d="m119.464844 349.867188c-3.914063 0-7.324219-2.664063-8.277344-6.460938l-17.066406-68.265625c-.765625-2.964844.117187-6.113281 2.316406-8.25 2.195312-2.136719 5.367188-2.929687 8.308594-2.082031 2.945312.847656 5.207031 3.207031 5.929687 6.183594l11.46875 45.894531 15.285157-30.566407c2.105468-4.21875 7.234374-5.929687 11.453124-3.824218 4.214844 2.105468 5.929688 7.234375 3.820313 11.453125l-25.597656 51.199219c-1.445313 2.890624-4.40625 4.71875-7.640625 4.71875zm0 0"/><path d="m170.667969 349.867188c-3.234375 0-6.191407-1.828126-7.636719-4.71875l-25.601562-51.199219c-2.105469-4.21875-.394532-9.347657 3.824218-11.453125 4.214844-2.105469 9.34375-.394532 11.449219 3.824218l15.285156 30.566407 11.46875-45.894531c1.171875-4.539063 5.785157-7.285157 10.335938-6.144532 4.546875 1.140625 7.324219 5.734375 6.21875 10.292969l-17.066407 68.265625c-.953124 3.796875-4.363281 6.460938-8.277343 6.460938zm0 0"/><path d="m230.398438 349.867188c-3.914063 0-7.324219-2.664063-8.277344-6.460938l-17.066406-68.265625c-.765626-2.964844.117187-6.113281 2.316406-8.25 2.195312-2.136719 5.367187-2.929687 8.308594-2.082031 2.945312.847656 5.207031 3.207031 5.929687 6.183594l11.46875 45.894531 15.285156-30.566407c2.105469-4.21875 7.234375-5.929687 11.449219-3.824218 4.21875 2.105468 5.929688 7.234375 3.824219 11.453125l-25.597657 51.199219c-1.449218 2.890624-4.40625 4.71875-7.640624 4.71875zm0 0"/><path d="m281.601562 349.867188c-3.25.015624-6.230468-1.8125-7.679687-4.71875l-25.601563-51.199219c-2.105468-4.21875-.394531-9.347657 3.824219-11.453125 4.214844-2.105469 9.34375-.394532 11.449219 3.824218l15.285156 30.566407 11.46875-45.894531c.722656-2.976563 2.984375-5.335938 5.929688-6.183594 2.941406-.847656 6.113281-.054688 8.3125 2.082031 2.195312 2.136719 3.078125 5.285156 2.3125 8.25l-17.066406 68.265625c-.949219 3.78125-4.335938 6.441406-8.234376 6.460938zm0 0"/><path d="m341.332031 349.867188c-3.914062 0-7.324219-2.664063-8.277343-6.460938l-17.066407-68.265625c-1.105469-4.558594 1.671875-9.152344 6.21875-10.292969 4.550781-1.140625 9.164063 1.605469 10.335938 6.144532l11.46875 45.894531 15.285156-30.566407c2.105469-4.21875 7.234375-5.929687 11.449219-3.824218 4.21875 2.105468 5.929687 7.234375 3.824218 11.453125l-25.601562 51.199219c-1.445312 2.890624-4.402344 4.71875-7.636719 4.71875zm0 0"/><path d="m392.535156 349.867188c-3.25.015624-6.230468-1.8125-7.683594-4.71875l-25.597656-51.199219c-2.105468-4.21875-.394531-9.347657 3.824219-11.453125 4.214844-2.105469 9.34375-.394532 11.449219 3.824218l15.285156 30.566407 11.46875-45.894531c.722656-2.976563 2.984375-5.335938 5.929688-6.183594 2.941406-.847656 6.113281-.054688 8.308593 2.082031 2.199219 2.136719 3.082031 5.285156 2.316407 8.25l-17.066407 68.265625c-.949219 3.78125-4.339843 6.441406-8.234375 6.460938zm0 0"/></g></svg>